<svg xmlns="http://www.w3.org/2000/svg" xmlns:xlink="http://www.w3.org/1999/xlink" width="45" height="45" viewBox="0 0 45 45"><defs><style>.a,.c{fill:#5d5d5d;}.a{stroke:#707070;}.b{clip-path:url(#a);}</style><clipPath id="a"><rect class="a" width="45" height="45" transform="translate(-0.377 -0.087)"/></clipPath></defs><g class="b" transform="translate(0.377 0.087)"><g transform="translate(4.714 6.004)"><path class="c" d="M34.42,30.7h-.583V9.7A2.334,2.334,0,0,0,31.5,7.367h-5.25V3.283a.583.583,0,0,0-.691-.573l-3.5.656-.583.11-5.2.974H12.834a1.167,1.167,0,0,0-1.167,1.167A2.917,2.917,0,0,0,9,7.367H3.5A2.334,2.334,0,0,0,1.167,9.7v21H.583A.583.583,0,0,0,0,31.286v1.75a2.334,2.334,0,0,0,2.334,2.334H32.67A2.334,2.334,0,0,0,35,33.036v-1.75A.583.583,0,0,0,34.42,30.7ZM16.918,5.518l8.167-1.531v9.1L16.918,11.55Zm0,7.216,1.167.219v.831H16.918ZM12.834,5.617h2.917v5.834H12.834ZM14,16.118v-3.5h1.75v3.5Zm1.75,1.167v.875a.875.875,0,0,1-1.75,0v-.875Zm-4.084-10.5v3.5a1.75,1.75,0,0,1,0-3.5ZM2.334,9.7A1.167,1.167,0,0,1,3.5,8.534h5.25a2.92,2.92,0,0,0,2.917,2.917,1.167,1.167,0,0,0,1.167,1.167V18.16a2.042,2.042,0,1,0,4.084,0V14.951h1.75a.583.583,0,0,0,.583-.583V13.175l6.31,1.183a.6.6,0,0,0,.107.01.583.583,0,0,0,.583-.583V8.534H31.5A1.167,1.167,0,0,1,32.67,9.7v21H22.752a.583.583,0,0,0-.412.17l-1,1H13.659l-1-1a.583.583,0,0,0-.412-.17H2.334Zm31.5,23.335A1.167,1.167,0,0,1,32.67,34.2H2.334a1.167,1.167,0,0,1-1.167-1.167V31.869H12.01l1,1a.583.583,0,0,0,.412.171h8.167A.583.583,0,0,0,22,32.865l1-1H33.836Z" transform="translate(0 -2.7)"/><g transform="translate(4.084 7.584)"><path class="c" d="M35.7,20.25H33.369v1.167h1.75V37.168h-24.5V21.417h2.917V20.25h-3.5a.583.583,0,0,0-.583.583V37.752a.583.583,0,0,0,.583.583H35.7a.583.583,0,0,0,.583-.583V20.833A.583.583,0,0,0,35.7,20.25Z" transform="translate(-9.45 -20.25)"/></g><g transform="translate(16.918 26.836)"><rect class="c" width="1.167" height="1.167"/></g><g transform="translate(8.167 19.252)"><rect class="c" width="1.167" height="1.167"/></g><g transform="translate(10.501 19.252)"><rect class="c" width="17.502" height="1.167"/></g><g transform="translate(7.001 21.585)"><rect class="c" width="19.252" height="1.167"/></g></g></g></svg>