<svg xmlns="http://www.w3.org/2000/svg" xmlns:xlink="http://www.w3.org/1999/xlink" width="49" height="49" viewBox="0 0 49 49"><defs><style>.a,.c{fill:#5d5d5d;}.a{stroke:#707070;}.b{clip-path:url(#a);}</style><clipPath id="a"><rect class="a" width="49" height="49" transform="translate(-0.425 -0.087)"/></clipPath></defs><g class="b" transform="translate(0.425 0.087)"><g transform="translate(4.35 4.715)"><path class="c" d="M26.238,39.736a4.513,4.513,0,0,1-1.861-.4l-3.333-1.513a2.838,2.838,0,0,0-2.349,0l-3.331,1.513a4.5,4.5,0,0,1-6.07-2.515L8.009,33.394a2.847,2.847,0,0,0-1.661-1.662L2.921,30.447a4.495,4.495,0,0,1-2.513-6.07l1.515-3.331a2.858,2.858,0,0,0,0-2.353L.406,15.364a4.495,4.495,0,0,1,2.513-6.07L6.347,8.009A2.838,2.838,0,0,0,8.007,6.347L9.292,2.921A4.5,4.5,0,0,1,15.364.406L18.7,1.92a2.838,2.838,0,0,0,2.349,0L24.377.406a4.5,4.5,0,0,1,6.07,2.515l1.285,3.426a2.847,2.847,0,0,0,1.661,1.662L36.82,9.294a4.495,4.495,0,0,1,2.513,6.07L37.818,18.7a2.858,2.858,0,0,0,0,2.353l1.513,3.33a4.495,4.495,0,0,1-2.513,6.07l-3.427,1.285a2.838,2.838,0,0,0-1.661,1.662L30.445,36.82a4.49,4.49,0,0,1-4.207,2.916ZM19.87,35.911a4.511,4.511,0,0,1,1.861.4l3.331,1.513A2.844,2.844,0,0,0,28.9,36.237l1.285-3.426a4.494,4.494,0,0,1,2.629-2.629L36.239,28.9a2.841,2.841,0,0,0,1.588-3.835l-1.515-3.331a4.5,4.5,0,0,1,0-3.72l1.515-3.333a2.841,2.841,0,0,0-1.588-3.835L32.811,9.559A4.49,4.49,0,0,1,30.182,6.93L28.9,3.5a2.845,2.845,0,0,0-3.836-1.589L21.73,3.428a4.5,4.5,0,0,1-3.72,0L14.678,1.913A2.844,2.844,0,0,0,10.844,3.5L9.559,6.93A4.491,4.491,0,0,1,6.929,9.557L3.5,10.842a2.845,2.845,0,0,0-1.589,3.836L3.428,18.01a4.5,4.5,0,0,1,0,3.72L1.913,25.063A2.841,2.841,0,0,0,3.5,28.9l3.427,1.285a4.49,4.49,0,0,1,2.629,2.629l1.285,3.426a2.845,2.845,0,0,0,3.836,1.589l3.331-1.513a4.532,4.532,0,0,1,1.861-.4Z" transform="translate(-0.004 -0.005)"/><g transform="translate(11.588 14.899)"><path class="c" d="M29.132,39.938a.828.828,0,0,1-.828-.828V33.316a1.656,1.656,0,0,0-3.311,0v5.795a.828.828,0,0,1-1.656,0V33.316a3.311,3.311,0,0,1,6.623,0v5.795A.828.828,0,0,1,29.132,39.938Z" transform="translate(-23.337 -30.004)"/></g><g transform="translate(11.588 19.866)"><path class="c" d="M29.132,41.661H24.165a.828.828,0,1,1,0-1.656h4.967a.828.828,0,0,1,0,1.656Z" transform="translate(-23.337 -40.006)"/></g><g transform="translate(21.522 14.899)"><path class="c" d="M45.823,39.938H44.167a.828.828,0,0,1-.828-.828V30.832A.828.828,0,0,1,44.167,30h1.656a4.144,4.144,0,0,1,4.139,4.139V35.8A4.144,4.144,0,0,1,45.823,39.938ZM45,38.283h.828A2.487,2.487,0,0,0,48.307,35.8V34.144a2.487,2.487,0,0,0-2.484-2.484H45Z" transform="translate(-43.34 -30.004)"/></g></g></g></svg>