<svg xmlns="http://www.w3.org/2000/svg" xmlns:xlink="http://www.w3.org/1999/xlink" width="58" height="58" viewBox="0 0 58 58"><defs><style>.a,.c{fill:#5d5d5d;}.a{stroke:#707070;}.b{clip-path:url(#a);}</style><clipPath id="a"><rect class="a" width="58" height="58" transform="translate(-4.636 -0.087)"/></clipPath></defs><g class="b" transform="translate(4.636 0.087)"><g transform="translate(-3.902 8.149)"><path class="c" d="M45.891,30.3,61.6,33.35a2.59,2.59,0,0,1,2.122,2.545V53.671a2.641,2.641,0,0,1-2.674,2.614H45a.873.873,0,0,0,.891-.871v-.871H61.046a.884.884,0,0,0,.891-.871V35.894a.88.88,0,0,0-.7-.854L45.891,32.078Z" transform="translate(-20.93 -14.772)"/><path class="c" d="M61.124,46.667a.872.872,0,1,1,0,1.743H57.558a.872.872,0,1,1,0-1.743Z" transform="translate(-26.357 -22.582)"/><path class="c" d="M61.124,56.667a.872.872,0,1,1,0,1.743H57.558a.872.872,0,1,1,0-1.743Z" transform="translate(-26.357 -27.353)"/><path class="c" d="M61.124,66.667a.872.872,0,1,1,0,1.743H57.558a.872.872,0,1,1,0-1.743Z" transform="translate(-26.357 -32.125)"/><path class="c" d="M45.116,55.271a.892.892,0,0,1-1.783,0v-24.4a.918.918,0,0,1,.321-.68.953.953,0,0,1,.749-.174l.713.139V55.271Z" transform="translate(-20.155 -14.63)"/><path class="c" d="M37.907,76.667v.871a.873.873,0,0,0,.891.871H31.667a.873.873,0,0,0,.891-.871v-.871Z" transform="translate(-14.729 -36.897)"/><path class="c" d="M31.124,16.667a.872.872,0,1,1,0,1.743H27.558a.872.872,0,1,1,0-1.743Z" transform="translate(-12.403 -8.267)"/><path class="c" d="M32.015,27.538a.873.873,0,0,1-.891.871H27.558a.872.872,0,1,1,0-1.743h3.566A.873.873,0,0,1,32.015,27.538Z" transform="translate(-12.403 -13.039)"/><path class="c" d="M31.124,36.667a.872.872,0,1,1,0,1.743H27.558a.872.872,0,1,1,0-1.743Z" transform="translate(-12.403 -17.81)"/><path class="c" d="M31.124,46.667a.872.872,0,1,1,0,1.743H27.558a.872.872,0,1,1,0-1.743Z" transform="translate(-12.403 -22.582)"/><path class="c" d="M15.349,47.538a.873.873,0,0,1-.891.871H10.891a.872.872,0,1,1,0-1.743h3.566A.873.873,0,0,1,15.349,47.538Z" transform="translate(-4.651 -22.582)"/><path class="c" d="M14.457,16.667a.872.872,0,1,1,0,1.743H10.891a.872.872,0,1,1,0-1.743Z" transform="translate(-4.651 -8.267)"/><path class="c" d="M14.457,26.667a.872.872,0,1,1,0,1.743H10.891a.872.872,0,1,1,0-1.743Z" transform="translate(-4.651 -13.039)"/><path class="c" d="M14.457,36.667a.872.872,0,1,1,0,1.743H10.891a.872.872,0,1,1,0-1.743Z" transform="translate(-4.651 -17.81)"/><path class="c" d="M22.248,59.281a.884.884,0,0,0-.891-.871H16.008a.873.873,0,0,0-.891.871v7.843H13.333V59.281a2.641,2.641,0,0,1,2.674-2.614h5.349a2.641,2.641,0,0,1,2.674,2.614v7.843H22.248Z" transform="translate(-6.202 -27.353)"/><path class="c" d="M15.116,76.667h8.915v.871a.873.873,0,0,1-.891.871H14.225a.873.873,0,0,1-.891-.871v-.871Z" transform="translate(-6.202 -36.897)"/><path class="c" d="M3.12.636l19.595,2.91a2.623,2.623,0,0,1,2.247,2.579v10l-.713-.139a.953.953,0,0,0-.749.174.918.918,0,0,0-.321.68V6.126a.887.887,0,0,0-.749-.871L2.835,2.361a.5.5,0,0,0-.16-.017.852.852,0,0,0-.571.209.826.826,0,0,0-.321.662V39.5a.884.884,0,0,0,.891.871H7.132v.871a.873.873,0,0,0,.891.871H2.674A2.641,2.641,0,0,1,0,39.5V3.215A2.543,2.543,0,0,1,.945,1.228,2.72,2.72,0,0,1,3.12.636Z" transform="translate(0 -0.602)"/></g></g></svg>